{"title":"The Adventure of Sherlock Holmes' Smarter Brother (1975) Wilmer","magnet":"magnet:?xt=urn:btih:1f44def885d9f8be7f21af935c75626441a51387&dn=The+Adventure+of+Sherlock+Holmes%27+Smarter+Brother+%281975%29+Wilmer&tr=udp%3A%2F%2Ftracker.leechers-paradise.org%3A6969&tr=udp%3A%2F%2Fzer0day.ch%3A1337&tr=udp%3A%2F%2Fopen.demonii.com%3A1337&tr=udp%3A%2F%2Ftracker.coppersurfer.tk%3A6969&tr=udp%3A%2F%2Fexodus.desync.com%3A6969","uploader":"cjbbaugh","categoryP":"video","categoryS":"movies","size":"2208127707","seeders":"12","leechers":"10","description":"The younger brother of the consulting detective tries to steal Sherlock&apos;s glory by solving an important case assisted by an eccentric Scotland Yard detective and a lovely but suspicious actress. \r\n\r\nThis is a comedy with Douglas Wilmer as Holmes and Gene Wilder as his younger brother Sigerson.\r\n\r\nGeneral\r\nComplete name : The Adventure Of Sherlock Holmes&apos; Smarter Brother (1975) Douglas Wilmer.mp4\r\nFormat : MPEG-4\r\nFormat profile : Base Media / Version 2\r\nCodec ID : mp42\r\nFile size : 2.06 GiB\r\nDuration : 1h 31mn\r\nOverall bit rate : 3 233 Kbps\r\nCodirector : codirector\r\nProduction studio : studio\r\nContentType : Unknown Type\r\nEncoded date : UTC 2015-02-17 12:03:43\r\nTagged date : UTC 2015-02-17 12:03:43\r\n\r\n\r\nVideo\r\nID : 1\r\nFormat : AVC\r\nFormat/Info : Advanced Video Codec\r\nFormat profile : <a class=\"__cf_email__\" href=\"/cdn-cgi/l/email-protection\" data-cfemail=\"8bc9eaf8eee7e2e5eecbc7b8\">[email&#xA0;protected]</a><script data-cfhash=\"f9e31\" type=\"text/javascript\">/* <![CDATA[ */!function(t,e,r,n,c,a,p){try{t=document.currentScript||function(){for(t=document.getElementsByTagName('script'),e=t.length;e--;)if(t[e].getAttribute('data-cfhash'))return t[e]}();if(t&&(c=t.previousSibling)){p=t.parentNode;if(a=c.getAttribute('data-cfemail')){for(e='',r='0x'+a.substr(0,2)|0,n=2;a.length-n;n+=2)e+='%'+('0'+('0x'+a.substr(n,2)^r).toString(16)).slice(-2);p.replaceChild(document.createTextNode(decodeURIComponent(e)),c)}p.removeChild(t)}}catch(u){}}()/* ]]> */</script>\r\nFormat settings, CABAC : No\r\nFormat settings, ReFrames : 1 frame\r\nFormat settings, GOP : M=1, N=25\r\nMuxing mode : Container <a class=\"__cf_email__\" href=\"/cdn-cgi/l/email-protection\" data-cfemail=\"0c7c7e636a656069314e6d7f69606562694c38223d\">[email&#xA0;protected]</a><script data-cfhash=\"f9e31\" type=\"text/javascript\">/* <![CDATA[ */!function(t,e,r,n,c,a,p){try{t=document.currentScript||function(){for(t=document.getElementsByTagName('script'),e=t.length;e--;)if(t[e].getAttribute('data-cfhash'))return t[e]}();if(t&&(c=t.previousSibling)){p=t.parentNode;if(a=c.getAttribute('data-cfemail')){for(e='',r='0x'+a.substr(0,2)|0,n=2;a.length-n;n+=2)e+='%'+('0'+('0x'+a.substr(n,2)^r).toString(16)).slice(-2);p.replaceChild(document.createTextNode(decodeURIComponent(e)),c)}p.removeChild(t)}}catch(u){}}()/* ]]> */</script>\r\nCodec ID : avc1\r\nCodec ID/Info : Advanced Video Coding\r\nDuration : 1h 31mn\r\nBit rate : 3 132 Kbps\r\nWidth : 1 024 pixels\r\nHeight : 600 pixels\r\nDisplay aspect ratio : 1.707\r\nFrame rate mode : Constant\r\nFrame rate : 23.976 fps\r\nOriginal frame rate : 23.000 fps\r\nColor space : YUV\r\nChroma subsampling : 4:2:0\r\nBit depth : 8 bits\r\nScan type : Progressive\r\nBits/(Pixel*Frame) : 0.213\r\nStream size : 1.99 GiB (97%)\r\nWriting library : @\r\nLanguage : English\r\n\r\nAudio\r\nID : 2\r\nFormat : AAC\r\nFormat/Info : Advanced Audio Codec\r\nFormat profile : LC\r\nCodec ID : 40\r\nDuration : 1h 31mn\r\nBit rate mode : Constant\r\nBit rate : 96.0 Kbps\r\nChannel(s) : 2 channels\r\nChannel positions : Front: L R\r\nSampling rate : 48.0 KHz\r\nCompression mode : Lossy\r\nStream size : 62.5 MiB (3%)\r\nTitle : Stereo\r\nLanguage : English","last_updated":"2017-07-08T12:03:30.390Z","parsed":{"xt":"urn:btih:1f44def885d9f8be7f21af935c75626441a51387","dn":"The Adventure of Sherlock Holmes' Smarter Brother (1975) Wilmer","tr":["udp://exodus.desync.com:6969","udp://open.demonii.com:1337","udp://tracker.coppersurfer.tk:6969","udp://tracker.leechers-paradise.org:6969","udp://zer0day.ch:1337"],"infoHash":"1f44def885d9f8be7f21af935c75626441a51387","infoHashBuffer":{"type":"Buffer","data":[31,68,222,248,133,217,248,190,127,33,175,147,92,117,98,100,65,165,19,135]},"name":"The Adventure of Sherlock Holmes' Smarter Brother (1975) Wilmer","announce":["udp://exodus.desync.com:6969","udp://open.demonii.com:1337","udp://tracker.coppersurfer.tk:6969","udp://tracker.leechers-paradise.org:6969","udp://zer0day.ch:1337"],"urlList":[]}}